# xmcd
#
# Track frame offsets: 
#        150
#        17517
#        33539
#        48909
#        68048
#        88153
#        105895
#        123933
#        140758
#        160751
#        183659
#        202303
#        221825
#        238937
#        257442
#        274952
#        292902
#        307924
#        322706
#        338981
#
# Disc length: 4745 seconds
#
# Revision: 2
# Processed by: cddbd v1.5.2PL0 Copyright (c) Steve Scherf et al.
# Submitted via: ExactAudioCopy v1.2
#
DISCID=24128714
DTITLE=Charlie Landsborough - The Ultimate Collection, CD2
DYEAR=2005
DGENRE=Country
TTITLE0=The Twelfth Of Never
TTITLE1=Raining In My Heart
TTITLE2=Part Of Me
TTITLE3=Love You Every Second
TTITLE4=In The Bleak Mid-Winter
TTITLE5=Smoke Gets In Your Eyes
TTITLE6=Everytime We Say Goodbye
TTITLE7=Marie
TTITLE8=Imagine
TTITLE9=When You Were Sweet Sixteen
TTITLE10=Two At A Time
TTITLE11=Fly Like A Rocket
TTITLE12=Gasoline Alley
TTITLE13=Why Worry
TTITLE14=Fields Of Gold
TTITLE15=If You Could Read My Mind
TTITLE16=Takin' My Time
TTITLE17=Sunshine
TTITLE18=What'll I Do
TTITLE19=Smile
EXTD=
EXTT0=
EXTT1=
EXTT2=
EXTT3=
EXTT4=
EXTT5=
EXTT6=
EXTT7=
EXTT8=
EXTT9=
EXTT10=
EXTT11=
EXTT12=
EXTT13=
EXTT14=
EXTT15=
EXTT16=
EXTT17=
EXTT18=
EXTT19=
PLAYORDER=
